<?xml version="1.0" encoding="UTF-8"?>
<svg xmlns="http://www.w3.org/2000/svg" version="1.1" width="1774" height="887" style="background: transparent;">

<path d="M0 0 C0.75522949 0.26756104 1.51045898 0.53512207 2.28857422 0.81079102 C21.14599985 7.6048483 37.89176551 18.89176551 52 33 C51.70502437 36.87697056 50.62018634 38.88400473 47.9206543 41.61279297 C46.94910652 42.60809525 46.94910652 42.60809525 45.95793152 43.62350464 C45.2538063 44.32266998 44.54968109 45.02183533 43.82421875 45.7421875 C42.74186699 46.83383713 42.74186699 46.83383713 41.63764954 47.94754028 C40.11183529 49.48045028 38.58087027 51.00824815 37.04516602 52.53125 C34.69081397 54.87170559 32.36147533 57.23519442 30.03320312 59.6015625 C28.54832674 61.08738973 27.06204537 62.57181448 25.57421875 64.0546875 C24.52713997 65.12165359 24.52713997 65.12165359 23.45890808 66.21017456 C22.80175308 66.85479645 22.14459808 67.49941833 21.4675293 68.16357422 C20.89318649 68.73695526 20.31884369 69.3103363 19.72709656 69.90109253 C18 71 18 71 15.89997864 70.775177 C13.42071945 69.76365789 12.02273662 68.32416033 10.125 66.4375 C-7.15594862 50.68134097 -28.64337357 47.04734471 -51.30761719 47.81640625 C-69.26038918 49.04060688 -87.68583279 59.1425607 -100 72 C-111.69760644 85.93391355 -118.19835483 101.43785353 -118.11352539 119.59741211 C-118.11367142 120.42748779 -118.11381744 121.25756348 -118.1139679 122.11279297 C-118.11327574 124.83433723 -118.1055162 127.55581156 -118.09765625 130.27734375 C-118.09578959 132.17305972 -118.09436686 134.06877617 -118.09336853 135.9644928 C-118.08956287 140.93748319 -118.07974935 145.91044407 -118.06866455 150.88342285 C-118.05840838 155.96459555 -118.05386192 161.04577305 -118.04882812 166.12695312 C-118.03812523 176.08465043 -118.02054434 186.04231813 -118 196 C-112.39 195.67 -106.78 195.34 -101 195 C-102.98 194.01 -104.96 193.02 -107 192 C-112.49698893 185.46304019 -112.15290862 178.17841262 -112.0625 170.0625 C-112.05798828 169.28326172 -112.05347656 168.50402344 -112.04882812 167.70117188 C-112.03716908 165.80074732 -112.01923877 163.90036294 -112 162 C-110 163 -110 163 -108.5625 166.3125 C-100.63523579 182.72694671 -82.67235077 193.95910776 -66.125 199.875 C-50.39791679 205.07349194 -29.29083281 203.66671204 -14 198 C-12.94941406 197.63777344 -11.89882813 197.27554688 -10.81640625 196.90234375 C-2.22825419 193.67494903 5.65599763 188.81959138 11.875 182 C14 180 14 180 16.35546875 179.5859375 C20.0847389 180.16984095 21.02822991 181.74037645 23.4375 184.625 C27.30279873 189.14426163 31.36583794 193.38993205 35.64453125 197.51953125 C36.14331284 198.00407776 36.64209442 198.48862427 37.1559906 198.987854 C40.2146002 201.95920389 40.2146002 201.95920389 43.29977417 204.90289307 C44.77026325 206.29523081 46.22147304 207.70784335 47.671875 209.12109375 C48.5287793 209.9402124 49.38568359 210.75933105 50.26855469 211.60327148 C52 214 52 214 51.88037109 216.67333984 C46.59638227 230.63795813 20.66894888 241.42189921 7.90625 247.46484375 C-1.96951216 251.65186147 -12.47410617 253.26593945 -23 255 C-24.0828125 255.19722656 -25.165625 255.39445312 -26.28125 255.59765625 C-32.05818079 256.22268132 -37.81873874 256.1844279 -43.625 256.1875 C-44.81996094 256.19974609 -46.01492188 256.21199219 -47.24609375 256.22460938 C-58.40595115 256.24274565 -69.13157166 254.84144559 -79.875 251.8125 C-80.63329102 251.59891846 -81.39158203 251.38533691 -82.17285156 251.1652832 C-89.85543236 248.89922712 -96.92517559 245.72481198 -104 242 C-104.59264648 241.69191406 -105.18529297 241.38382813 -105.79589844 241.06640625 C-126.50793276 230.17366152 -144.70973921 213.98416389 -157 194 C-157.72223471 192.87389268 -158.44622962 191.74891256 -159.171875 190.625 C-164.83666438 181.69365323 -168.72881967 172.99932186 -172 163 C-172.23420654 162.31180176 -172.46841309 161.62360352 -172.7097168 160.91455078 C-179.46132765 140.53554506 -179.62287405 115.70357771 -174 95 C-173.77183594 94.02160156 -173.54367187 93.04320312 -173.30859375 92.03515625 C-168.93500103 74.21588993 -159.19643925 56.66294497 -147 43 C-145.95779297 41.77990234 -145.95779297 41.77990234 -144.89453125 40.53515625 C-110.20693547 0.69046658 -50.86859704 -18.83113384 0 0 Z " fill="#FC3E51" transform="translate(493,318)"/>
<path d="M0 0 C80.18504098 0 80.18504098 0 95.66796875 14.5078125 C104.29733655 23.72981694 107.57344279 34.40610195 107.4375 46.8125 C107.42992676 47.78082764 107.42235352 48.74915527 107.41455078 49.74682617 C107.13357968 61.96701813 103.57623278 71.83397056 95.2578125 80.8984375 C81.10150066 94.34987074 63.03642213 95.48333241 44.625 95.1875 C39.13875 95.125625 33.6525 95.06375 28 95 C28 110.84 28 126.68 28 143 C18.76 143 9.52 143 0 143 C0 95.81 0 48.62 0 0 Z " fill="#FB2D65" transform="translate(1185,372)"/>
<path d="M0 0 C4.55392192 3.90556694 9.0296402 8.14777258 12.5 13.0625 C12.5 14.0525 12.5 15.0425 12.5 16.0625 C11.00292969 17.54882813 11.00292969 17.54882813 8.921875 19.09375 C8.17292969 19.65707031 7.42398438 20.22039062 6.65234375 20.80078125 C5.46318359 21.67283203 5.46318359 21.67283203 4.25 22.5625 C3.47269531 23.14386719 2.69539062 23.72523438 1.89453125 24.32421875 C0.43773762 25.41245604 -1.02193392 26.49685873 -2.48535156 27.57617188 C-3.88631825 28.60974982 -5.26737758 29.67063707 -6.63183594 30.75195312 C-8.5 32.0625 -8.5 32.0625 -10.5 32.0625 C-11.54751634 30.72334559 -12.53777876 29.33919729 -13.5 27.9375 C-18.93639835 20.74924771 -26.81052994 16.36582176 -35.5 14.0625 C-39.25869801 13.60354616 -42.96611052 13.53798571 -46.75 13.5625 C-47.76980957 13.56822021 -48.78961914 13.57394043 -49.84033203 13.57983398 C-57.60203289 13.7638692 -63.83810255 14.86005105 -70.5 19.0625 C-71.31339844 19.55878906 -72.12679687 20.05507813 -72.96484375 20.56640625 C-81.95065646 26.77125197 -87.39879886 36.75214601 -90.5 47.0625 C-91.02144919 50.7093124 -91.07425263 54.25844357 -91 57.9375 C-90.98791504 58.90204102 -90.97583008 59.86658203 -90.96337891 60.86035156 C-90.76041944 68.15951183 -89.77537907 74.46088194 -86.5 81.0625 C-86.06429687 81.95066406 -85.62859375 82.83882813 -85.1796875 83.75390625 C-79.1280359 94.84860085 -70.2736817 100.13793943 -58.5 104.0625 C-44.89881083 105.22248483 -31.84495767 105.54021576 -20.671875 96.8671875 C-16.83407115 93.54474588 -13.44241234 90.20819918 -10.5 86.0625 C-6.23833349 86.60300404 -3.37224169 89.22368519 -0.125 91.8125 C0.70257812 92.45832031 0.70257812 92.45832031 1.546875 93.1171875 C5.25868723 96.0273877 8.88839232 99.029186 12.5 102.0625 C11.01516661 106.99361335 8.19819476 109.90515652 4.625 113.4375 C4.04637207 114.01040771 3.46774414 114.58331543 2.87158203 115.17358398 C-12.66747187 130.08439136 -31.9477693 133.75208303 -52.73046875 133.3671875 C-72.36619275 132.59010734 -89.06280723 124.0912673 -102.5 110.0625 C-103.42039062 109.11890625 -103.42039062 109.11890625 -104.359375 108.15625 C-118.70819506 92.47609612 -122.5667808 72.22766142 -121.68652344 51.70166016 C-120.36548576 33.01001445 -111.46634764 16.34446933 -97.87109375 3.59765625 C-70.2466015 -20.01873044 -29.12862088 -22.26958783 0 0 Z " fill="#242425" transform="translate(722.5,383.9375)"/>
<path d="M0 0 C8.91 0 17.82 0 27 0 C27.495 26.235 27.495 26.235 28 53 C30.64 50.36 33.28 47.72 36 45 C47.12770788 38.49457078 57.78039185 37.41738376 70.25 40.625 C76.14693504 42.47591023 80.56532503 44.70033855 85 49 C85.54011719 49.51304687 86.08023438 50.02609375 86.63671875 50.5546875 C94.20243915 58.52060974 97.13235196 68.42702867 97.11352539 79.17700195 C97.11367142 79.87998917 97.11381744 80.58297638 97.1139679 81.30726624 C97.11327441 83.61763659 97.10550857 85.92792508 97.09765625 88.23828125 C97.09579006 89.84539241 97.09436711 91.45250415 97.09336853 93.05961609 C97.08955915 97.27968937 97.07974239 101.49972797 97.06866455 105.7197876 C97.05841643 110.02998384 97.05386363 114.3401857 97.04882812 118.65039062 C97.03811866 127.10027807 97.0205347 135.55013072 97 144 C87.76 144 78.52 144 69 144 C68.97421875 139.400625 68.9484375 134.80125 68.921875 130.0625 C68.89668781 127.13666417 68.8703408 124.21092981 68.83984375 121.28515625 C68.79162038 116.64827176 68.74753419 112.01162235 68.72900391 107.37451172 C68.71378248 103.63299259 68.67924163 99.89209135 68.63169098 96.15084839 C68.61693328 94.72847892 68.60896222 93.30602121 68.60811615 91.88357544 C68.59760809 83.0699464 68.55134634 75.86558184 62.24609375 69.125 C55.32987049 64.82290001 48.44163283 65.18316689 40.625 66.6875 C34.59826849 68.86959244 31.62336067 72.71984553 28.85144043 78.42089844 C27.02930203 83.94034506 27.3941609 89.8063145 27.390625 95.5625 C27.37562199 96.96356091 27.35889042 98.36460426 27.34051514 99.765625 C27.29706634 103.42833325 27.27689307 107.09080302 27.26177979 110.75372314 C27.24212686 114.50132213 27.2001665 118.2486666 27.16015625 121.99609375 C27.08509787 129.33069256 27.0367252 136.66509073 27 144 C18.09 144 9.18 144 0 144 C0 96.48 0 48.96 0 0 Z " fill="#242426" transform="translate(749,371)"/>
<path d="M0 0 C7.41102978 6.81917671 11.60331633 14.0339791 13 24 C13.08440752 26.39839036 13.11779562 28.79885908 13.11352539 31.19873047 C13.11367142 31.89211014 13.11381744 32.58548981 13.1139679 33.29988098 C13.11327596 35.57234926 13.1055175 37.84473369 13.09765625 40.1171875 C13.09578951 41.70044917 13.09436682 43.28371142 13.09336853 44.86697388 C13.08956349 49.01962906 13.07975051 53.17224886 13.06866455 57.32489014 C13.05840703 61.56815106 13.05386163 65.81141773 13.04882812 70.0546875 C13.03812632 78.36980965 13.02054595 86.68489634 13 95 C4.42 95 -4.16 95 -13 95 C-13 91.04 -13 87.08 -13 83 C-13.66 83 -14.32 83 -15 83 C-15.25652344 83.59683594 -15.51304688 84.19367188 -15.77734375 84.80859375 C-17.1224827 87.21952969 -18.37182237 88.40289574 -20.5625 90.0625 C-21.18253906 90.54847656 -21.80257813 91.03445313 -22.44140625 91.53515625 C-32.98622054 97.57226367 -47.39931481 98.22116984 -59.11474609 95.51074219 C-67.04595238 92.81761122 -72.99143559 87.14974401 -77.8125 80.5 C-81.53006228 72.6735531 -82.55668394 63.87294396 -80.3125 55.40625 C-76.35975258 45.78789795 -69.65024717 39.94497197 -60.30078125 35.8046875 C-45.59946082 30.42110537 -29.14487976 32.63096853 -14 35 C-14.42192133 26.52985844 -14.42192133 26.52985844 -18 19 C-20.26300238 17.36706789 -22.47289741 16.24057763 -25 15 C-25.66 14.67 -26.32 14.34 -27 14 C-40.40953524 13.03976015 -40.40953524 13.03976015 -52.03125 18.7578125 C-53.76042075 20.45267431 -55.4042945 22.17989841 -57 24 C-61.72843614 22.42686828 -65.3433843 19.79358765 -69.3125 16.875 C-69.95767578 16.40707031 -70.60285156 15.93914062 -71.26757812 15.45703125 C-72.84848894 14.3094071 -74.42472301 13.15534523 -76 12 C-74.63330195 5.68117624 -69.67672089 1.91745871 -64.5625 -1.74609375 C-45.60164305 -13.62625568 -18.0436699 -14.09661711 0 0 Z " fill="#252526" transform="translate(1147,420)"/>
<path d="M0 0 C7.22380491 6.19574918 11.09911958 12.65605425 13 22 C13.39938036 27.57984408 13.35096113 33.13559336 13.29296875 38.7265625 C13.28736255 40.32652384 13.2830973 41.92649038 13.28010559 43.52645874 C13.26873728 47.70549126 13.23934079 51.88420314 13.20599365 56.06311035 C13.17511835 60.34020655 13.16156321 64.61735535 13.14648438 68.89453125 C13.11446194 77.26318324 13.06176121 85.6315146 13 94 C4.42 94 -4.16 94 -13 94 C-13 90.7 -13 87.4 -13 84 C-13.66 84 -14.32 84 -15 84 C-15.23976563 84.59683594 -15.47953125 85.19367188 -15.7265625 85.80859375 C-19.07279133 91.5669814 -26.74763142 94.17384899 -32.875 95.875 C-46.02135365 98.70652233 -57.3825365 96.95036926 -68.73828125 89.73046875 C-72.33415171 86.97922417 -74.74079915 83.89954471 -77 80 C-77.33902344 79.41863281 -77.67804688 78.83726562 -78.02734375 78.23828125 C-81.38370747 71.10794174 -81.24642844 61.7310671 -79.2734375 54.2421875 C-75.56845917 45.35626386 -69.68936874 39.94865416 -61 36 C-45.87187598 31.01332208 -29.61444172 32.82313764 -14 34 C-13.99044583 26.29478066 -13.99044583 26.29478066 -17.125 19.5 C-24.26529807 13.29104515 -30.8259984 13.38536466 -40 14 C-46.22387716 14.56202235 -49.92331136 17.21337204 -54.3359375 21.44140625 C-56 23 -56 23 -58 24 C-63.94 20.04 -69.88 16.08 -76 12 C-72.54332666 3.35831666 -65.70581848 -1.47802354 -57.4375 -5.4375 C-38.99647822 -13.1694499 -16.36683679 -12.47562877 0 0 Z " fill="#FC4D41" transform="translate(1378,420)"/>
<path d="M0 0 C8.91 0 17.82 0 27 0 C27 9.57 27 19.14 27 29 C36.9 29 46.8 29 57 29 C57.020625 32.774375 57.04125 36.54875 57.0625 40.4375 C57.071604 41.62915771 57.08070801 42.82081543 57.09008789 44.04858398 C57.09258545 44.98001221 57.09508301 45.91144043 57.09765625 46.87109375 C57.10289307 47.82943115 57.10812988 48.78776855 57.11352539 49.77514648 C57 52 57 52 56 53 C53.92737924 53.08767112 51.85179706 53.10695873 49.77734375 53.09765625 C48.51728516 53.09443359 47.25722656 53.09121094 45.95898438 53.08789062 C44.61848891 53.07953403 43.27799412 53.07106907 41.9375 53.0625 C40.59310058 53.0574866 39.2486994 53.05292342 37.90429688 53.04882812 C34.60282059 53.03699488 31.30143197 53.02050971 28 53 C28.0670493 59.45992684 28.1568753 65.91925082 28.26245117 72.37866211 C28.29568055 74.57552927 28.32371866 76.7724814 28.34643555 78.96948242 C28.38001754 82.12976243 28.43233634 85.28926521 28.48828125 88.44921875 C28.49467117 89.42960617 28.5010611 90.40999359 28.50764465 91.42008972 C28.64197728 98.20893855 28.64197728 98.20893855 32 104 C35.5139171 106.3426114 37.03179202 106.26948749 41.1875 106.25 C42.27417969 106.25515625 43.36085938 106.2603125 44.48046875 106.265625 C48.53967341 105.95926993 52.07949269 105.07974628 56 104 C56.33747548 106.87456792 56.67010463 109.74956059 57 112.625 C57.09539062 113.43324219 57.19078125 114.24148438 57.2890625 115.07421875 C57.78253617 119.40973739 58.11320717 123.62737311 58 128 C50.43330039 131.34680944 44.60173368 132.20617061 36.3125 132.25 C34.87874023 132.2809375 34.87874023 132.2809375 33.41601562 132.3125 C23.43150699 132.36694858 15.27975103 130.04986416 8 123 C0.40902091 113.91102282 -0.30109526 105.08214983 -0.1953125 93.625 C-0.1924826 92.4599292 -0.18965271 91.2948584 -0.18673706 90.09448242 C-0.17559807 86.39621438 -0.15050479 82.69819408 -0.125 79 C-0.1149621 76.48307643 -0.10583766 73.96614904 -0.09765625 71.44921875 C-0.0756793 65.29939553 -0.04226444 59.14971547 0 53 C-1.14339844 53.01160156 -2.28679688 53.02320313 -3.46484375 53.03515625 C-4.95572754 53.04453288 -6.44661309 53.05363321 -7.9375 53.0625 C-8.69224609 53.07087891 -9.44699219 53.07925781 -10.22460938 53.08789062 C-12.14994313 53.09652441 -14.07535581 53.05224333 -16 53 C-17 52 -17 52 -17.11352539 49.77514648 C-17.10828857 48.81680908 -17.10305176 47.85847168 -17.09765625 46.87109375 C-17.09443359 45.83662109 -17.09121094 44.80214844 -17.08789062 43.73632812 C-17.07532227 42.1034082 -17.07532227 42.1034082 -17.0625 40.4375 C-17.05798828 39.34501953 -17.05347656 38.25253906 -17.04882812 37.12695312 C-17.0369984 34.41794568 -17.01906231 31.7089662 -17 29 C-11.39 29 -5.78 29 0 29 C0 19.43 0 9.86 0 0 Z " fill="#262627" transform="translate(920,384)"/>
<path d="M0 0 C4.269375 -0.020625 8.53875 -0.04125 12.9375 -0.0625 C14.95991821 -0.07615601 14.95991821 -0.07615601 17.02319336 -0.09008789 C18.6030603 -0.09383423 18.6030603 -0.09383423 20.21484375 -0.09765625 C21.84087524 -0.10551147 21.84087524 -0.10551147 23.49975586 -0.11352539 C26 0 26 0 27 1 C27.08767112 3.07262076 27.10695873 5.14820294 27.09765625 7.22265625 C27.09515869 8.35711182 27.09266113 9.49156738 27.09008789 10.66040039 C27.08098389 12.11309326 27.07187988 13.56578613 27.0625 15.0625 C27.041875 19.661875 27.02125 24.26125 27 29 C36.57 29 46.14 29 56 29 C56 36.92 56 44.84 56 53 C46.43 53 36.86 53 27 53 C27.07402069 59.46021925 27.15687217 65.91905939 27.26245117 72.37866211 C27.29568055 74.57552927 27.32371866 76.7724814 27.34643555 78.96948242 C27.38001754 82.12976243 27.43233634 85.28926521 27.48828125 88.44921875 C27.49467117 89.42960617 27.5010611 90.40999359 27.50764465 91.42008972 C27.64197728 98.20893855 27.64197728 98.20893855 31 104 C34.75044485 106.50029657 36.78042176 106.23646948 41.25 106.1875 C43.17585938 106.17783203 43.17585938 106.17783203 45.140625 106.16796875 C48.85276971 106.0064078 52.33894478 105.59278744 56 105 C57.03387512 113.0125322 57.10466648 120.92905177 57 129 C42.58944164 133.19216243 28.21065522 136.074496 14.33984375 128.55859375 C6.17906586 123.37848289 2.70428918 117.11122552 0 108 C-0.24050903 105.15249634 -0.24050903 105.15249634 -0.22705078 102.17822266 C-0.22689972 101.05751373 -0.22674866 99.93680481 -0.22659302 98.78213501 C-0.21627045 97.58817108 -0.20594788 96.39420715 -0.1953125 95.1640625 C-0.1924826 93.92957367 -0.18965271 92.69508484 -0.18673706 91.42318726 C-0.17556522 87.49035851 -0.15046564 83.55775963 -0.125 79.625 C-0.11383825 76.95443041 -0.10584119 74.28386299 -0.09765625 71.61328125 C-0.07563562 65.07543261 -0.04112592 58.53775525 0 52 C-5.61 52 -11.22 52 -17 52 C-17 44.41 -17 36.82 -17 29 C-11.39 29 -5.78 29 0 29 C0 19.43 0 9.86 0 0 Z " fill="#FC5A35" transform="translate(1417,384)"/>
<path d="M0 0 C0.72445313 -0.00386719 1.44890625 -0.00773437 2.1953125 -0.01171875 C5.39282879 -0.00581927 7.94582607 0.10694202 11 1.125 C11 10.035 11 18.945 11 28.125 C8.36 27.795 5.72 27.465 3 27.125 C-4.56149058 26.54843634 -10.68202579 26.59956731 -17 31.125 C-22.86342896 36.20663843 -26.51331749 42.14846465 -27.2784729 49.97250366 C-27.29179657 50.95401398 -27.30512024 51.93552429 -27.31884766 52.94677734 C-27.33871735 54.06748627 -27.35858704 55.18819519 -27.37905884 56.34286499 C-27.39638565 58.13381088 -27.39638565 58.13381088 -27.4140625 59.9609375 C-27.43342865 61.19542633 -27.4527948 62.42991516 -27.4727478 63.70181274 C-27.53240097 67.63447212 -27.57887263 71.567161 -27.625 75.5 C-27.66212543 78.17060453 -27.70224525 80.84115364 -27.7421875 83.51171875 C-27.83970441 90.04941503 -27.91938854 96.58698602 -28 103.125 C-36.91 103.125 -45.82 103.125 -55 103.125 C-55 69.795 -55 36.465 -55 2.125 C-46.09 2.125 -37.18 2.125 -28 2.125 C-27.67 6.415 -27.34 10.705 -27 15.125 C-26.21625 13.92875 -25.4325 12.7325 -24.625 11.5 C-18.42835132 3.17371549 -10.07309067 -0.05377095 0 0 Z " fill="#222324" transform="translate(1048,410.875)"/>
<path d="M0 0 C2.87988281 1.27832031 2.87988281 1.27832031 5.703125 3.078125 C6.75685303 3.7388501 7.81058105 4.3995752 8.89624023 5.08032227 C10.00298096 5.79631592 11.10972168 6.51230957 12.25 7.25 C13.40933212 7.98442289 14.56958005 8.717402 15.73071289 9.44897461 C18.06248981 10.92153812 20.38848054 12.40258691 22.70947266 13.89208984 C25.64487932 15.77250987 28.58996849 17.63566328 31.54296875 19.48828125 C35.3823271 21.89767831 39.21286338 24.3203951 43.03759766 26.75292969 C44.88111918 27.92445344 46.72712014 29.09193933 48.57421875 30.2578125 C49.58097656 30.89460938 50.58773437 31.53140625 51.625 32.1875 C52.46289062 32.71730469 53.30078125 33.24710937 54.1640625 33.79296875 C56 35 56 35 57 36 C57.625 39.1875 57.625 39.1875 57 43 C55.35913086 44.44091797 55.35913086 44.44091797 53.15234375 45.8046875 C51.92161133 46.57897095 51.92161133 46.57897095 50.66601562 47.36889648 C49.78623047 47.90716064 48.90644531 48.4454248 48 49 C46.23814015 50.11305793 44.47642551 51.22634574 42.71484375 52.33984375 C39.75170808 54.18908031 36.78484615 56.03218766 33.81665039 57.87329102 C28.29250961 61.30427581 22.79573722 64.76774506 17.34375 68.3125 C16.2700415 69.00351807 15.19633301 69.69453613 14.09008789 70.40649414 C12.02905538 71.73428237 9.97574985 73.07416251 7.93139648 74.42749023 C-1.05976836 80.18186663 -1.05976836 80.18186663 -7 79 C-8.66348267 77.89978027 -8.66348267 77.89978027 -10 76 C-10.38095093 72.88806152 -10.38095093 72.88806152 -10.38818359 69.00585938 C-10.39344055 68.29822952 -10.39869751 67.59059967 -10.40411377 66.86152649 C-10.41731947 64.52204323 -10.40857415 62.1832402 -10.3984375 59.84375 C-10.40045808 58.21854522 -10.40336939 56.59334132 -10.40713501 54.96813965 C-10.41155912 51.56184254 -10.40512466 48.15578141 -10.39111328 44.74951172 C-10.37402117 40.38115404 -10.38386191 36.01334929 -10.40183067 31.6450119 C-10.41266627 28.2889997 -10.40922324 24.9331188 -10.4014473 21.57710266 C-10.39944466 19.96633336 -10.4019068 18.35555218 -10.40888596 16.74479675 C-10.41649698 14.49425639 -10.40490228 12.24461402 -10.38818359 9.99414062 C-10.38579681 8.71301392 -10.38341003 7.43188721 -10.38095093 6.11193848 C-10 3 -10 3 -8.68392944 1.08660889 C-5.79995724 -0.77436566 -3.32974368 -0.34476186 0 0 Z " fill="#FC3854" transform="translate(438,404)"/>
<path d="M0 0 C9.24 0 18.48 0 28 0 C28.02254879 13.1514933 28.04091379 26.30297386 28.05181217 39.45448208 C28.05704156 45.56056369 28.0641402 51.66663144 28.07543945 57.77270508 C28.08626637 63.66005147 28.09227642 69.54738449 28.09487724 75.43474007 C28.09673185 77.68632277 28.10035313 79.93790469 28.10573006 82.18948174 C28.11293789 85.33133427 28.11399105 88.47313083 28.11352539 91.61499023 C28.11712067 92.55581955 28.12071594 93.49664886 28.12442017 94.46598816 C28.11405216 100.88594784 28.11405216 100.88594784 27 102 C18.09 102 9.18 102 0 102 C0 68.34 0 34.68 0 0 Z " fill="#272729" transform="translate(865,413)"/>
<path d="M0 0 C5.61 -0.0825 11.22 -0.165 17 -0.25 C18.75441406 -0.28641602 20.50882813 -0.32283203 22.31640625 -0.36035156 C23.73175845 -0.3720513 25.14712428 -0.38224007 26.5625 -0.390625 C27.27728516 -0.41108887 27.99207031 -0.43155273 28.72851562 -0.45263672 C34.77290919 -0.45675415 40.06450534 1.22778317 44.53295898 5.44769287 C49.93653024 11.69787605 50.46091292 16.39104981 50.30078125 24.515625 C49.89988787 29.1597405 49.10013031 32.46519534 46 36 C39.58894466 41.26539743 34.53100662 43.15645843 26.26953125 43.09765625 C25.60417358 43.09664917 24.93881592 43.09564209 24.2532959 43.09460449 C21.77301301 43.08938106 19.29275474 43.07541978 16.8125 43.0625 C11.264375 43.041875 5.71625 43.02125 0 43 C0 28.81 0 14.62 0 0 Z " fill="#FDFAFB" transform="translate(1213,398)"/>
<path d="M0 0 C5.2536875 2.71194668 8.0402458 6.81604991 9.87109375 12.30859375 C10.37310614 18.43314493 9.97037719 21.43377021 5.87109375 26.30859375 C0.99100514 30.81329093 -3.32272804 32.83374475 -10.07421875 32.6171875 C-15.27483742 31.83610599 -18.31268006 29.31317983 -21.56640625 25.30859375 C-24.06413394 20.26969962 -23.98804454 14.76708444 -23.12890625 9.30859375 C-21.48966662 5.48594068 -19.03588394 3.13554399 -16.00390625 0.37109375 C-10.86667911 -1.52744671 -5.2397316 -1.701711 0 0 Z " fill="#252527" transform="translate(886.12890625,367.69140625)"/>
<path d="M0 0 C0.85658203 -0.00128906 1.71316406 -0.00257813 2.59570312 -0.00390625 C3.9347168 0.00189453 3.9347168 0.00189453 5.30078125 0.0078125 C6.61079102 0.00201172 6.61079102 0.00201172 7.94726562 -0.00390625 C13.25997717 0.00402909 18.35646768 0.36173158 23.61328125 1.1328125 C24.11883 7.87346255 24.54424789 13.836818 20.33203125 19.44140625 C13.61092686 26.05558398 6.23589298 26.68969261 -2.87109375 26.69921875 C-7.84381842 25.89805755 -11.00854171 23.74068571 -14.26171875 19.9453125 C-15.88617067 15.88418271 -16.55557602 12.41375225 -15.38671875 8.1328125 C-11.19924186 2.91785286 -6.74126044 0.00985873 0 0 Z " fill="#FDF8F8" transform="translate(1340.38671875,469.8671875)"/>
<path d="M0 0 C0.99451172 0.00193359 1.98902344 0.00386719 3.01367188 0.00585938 C4.04169922 0.01810547 5.06972656 0.03035156 6.12890625 0.04296875 C7.15306641 0.04361328 8.17722656 0.04425781 9.23242188 0.04492188 C14.15459904 0.07359475 18.85612679 0.19374502 23.69140625 1.23046875 C24.27384076 12.14572299 24.27384076 12.14572299 20.69140625 17.23046875 C16.05040352 21.99752341 11.90706978 24.92690447 5.1328125 25.56640625 C3.21275391 25.58574219 3.21275391 25.58574219 1.25390625 25.60546875 C-0.02355469 25.63382812 -1.30101562 25.6621875 -2.6171875 25.69140625 C-6.90779447 25.15564792 -8.95563997 23.90318299 -12.30859375 21.23046875 C-12.91703125 20.76382812 -13.52546875 20.2971875 -14.15234375 19.81640625 C-16.73139643 16.27892184 -15.95448212 11.35328892 -15.30859375 7.23046875 C-11.38626185 1.73920409 -6.59404552 -0.03013138 0 0 Z " fill="#F9F9F9" transform="translate(1109.30859375,470.76953125)"/>
<path d="M0 0 C2 1 2 1 3.4375 4.3125 C8.10946296 14.00507987 17.33632206 21.92472954 26 28 C25.01 28.33 24.02 28.66 23 29 C22.34 28.34 21.68 27.68 21 27 C18.39719432 27.32041397 18.39719432 27.32041397 16 28 C15.67 29.32 15.34 30.64 15 32 C16.65 32.33 18.3 32.66 20 33 C20 33.66 20 34.32 20 35 C11.42 35 2.84 35 -6 35 C-6 34.67 -6 34.34 -6 34 C2.415 33.505 2.415 33.505 11 33 C9.02 32.01 7.04 31.02 5 30 C-0.49698893 23.46304019 -0.15290862 16.17841262 -0.0625 8.0625 C-0.05798828 7.28326172 -0.05347656 6.50402344 -0.04882812 5.70117188 C-0.03716908 3.80074732 -0.01923877 1.90036294 0 0 Z " fill="#FC5656" transform="translate(381,480)"/>
<path d="M0 0 C1.26714844 -0.01417969 2.53429687 -0.02835937 3.83984375 -0.04296875 C7.0625 0.1875 7.0625 0.1875 9.0625 2.1875 C9.328125 5.375 9.328125 5.375 9.3125 9.1875 C9.31765625 10.445625 9.3228125 11.70375 9.328125 13 C9.0625 16.1875 9.0625 16.1875 7.0625 18.1875 C3.83984375 18.41796875 3.83984375 18.41796875 0 18.375 C-1.26972656 18.36855469 -2.53945313 18.36210937 -3.84765625 18.35546875 C-6.9375 18.1875 -6.9375 18.1875 -7.9375 17.1875 C-8.03731214 14.5101862 -8.07629875 11.86445825 -8.0625 9.1875 C-8.06636719 8.43726563 -8.07023437 7.68703125 -8.07421875 6.9140625 C-8.06096947 -0.42603638 -7.14022992 0.03624482 0 0 Z " fill="#FDF0F3" transform="translate(356.9375,432.8125)"/>
<path d="M0 0 C1.258125 -0.01675781 2.51625 -0.03351563 3.8125 -0.05078125 C4.864375 0.06910156 5.91625 0.18898438 7 0.3125 C9.31590289 3.78635433 9.26991835 5.27680006 9.25 9.375 C9.25515625 10.43847656 9.2603125 11.50195312 9.265625 12.59765625 C9 15.3125 9 15.3125 7 17.3125 C3.8125 17.578125 3.8125 17.578125 0 17.5625 C-1.258125 17.56765625 -2.51625 17.5728125 -3.8125 17.578125 C-7 17.3125 -7 17.3125 -9 15.3125 C-9.265625 12.34375 -9.265625 12.34375 -9.25 8.8125 C-9.25515625 7.6471875 -9.2603125 6.481875 -9.265625 5.28125 C-8.73004754 -0.70461574 -5.13743928 0.01579131 0 0 Z " fill="#FDEDF2" transform="translate(357,402.6875)"/>
<path d="M0 0 C1.27875 0.00257813 2.5575 0.00515625 3.875 0.0078125 C5.15375 0.00523437 6.4325 0.00265625 7.75 0 C10.875 0.1328125 10.875 0.1328125 11.875 1.1328125 C11.97475032 3.64417354 12.01382183 6.12184665 12 8.6328125 C12.00580078 9.68662109 12.00580078 9.68662109 12.01171875 10.76171875 C12.00161378 16.00619872 12.00161378 16.00619872 10.875 17.1328125 C8.54339945 17.23190552 6.20870058 17.26251754 3.875 17.2578125 C2.59625 17.26039063 1.3175 17.26296875 0 17.265625 C-3.125 17.1328125 -3.125 17.1328125 -4.125 16.1328125 C-4.22475032 13.62145146 -4.26382183 11.14377835 -4.25 8.6328125 C-4.25386719 7.93027344 -4.25773437 7.22773438 -4.26171875 6.50390625 C-4.24953513 0.18060524 -4.24953513 0.18060524 0 0 Z " fill="#FDF8F9" transform="translate(353.125,463.8671875)"/>
<path d="M0 0 C1.27875 0.00257813 2.5575 0.00515625 3.875 0.0078125 C5.15375 0.00523437 6.4325 0.00265625 7.75 0 C10.875 0.1328125 10.875 0.1328125 11.875 1.1328125 C11.94813567 3.66330652 11.96747527 6.16586087 11.9375 8.6953125 C11.93298828 9.40623047 11.92847656 10.11714844 11.92382812 10.84960938 C11.91200864 12.61071263 11.89407263 14.37177286 11.875 16.1328125 C9.00866205 17.56598148 6.50264499 17.26481611 3.3125 17.2578125 C1.54712891 17.26167969 1.54712891 17.26167969 -0.25390625 17.265625 C-3.125 17.1328125 -3.125 17.1328125 -4.125 16.1328125 C-4.22475032 13.62145146 -4.26382183 11.14377835 -4.25 8.6328125 C-4.25386719 7.93027344 -4.25773437 7.22773438 -4.26171875 6.50390625 C-4.24953513 0.18060524 -4.24953513 0.18060524 0 0 Z " fill="#FDF8F9" transform="translate(353.125,494.8671875)"/>
<path d="M0 0 C1.27875 0.00257813 2.5575 0.00515625 3.875 0.0078125 C5.15375 0.00523437 6.4325 0.00265625 7.75 0 C10.875 0.1328125 10.875 0.1328125 11.875 1.1328125 C12.00057162 3.44274632 12.05075729 5.75699786 12.0625 8.0703125 C12.07667969 9.33746094 12.09085937 10.60460937 12.10546875 11.91015625 C11.875 15.1328125 11.875 15.1328125 9.875 17.1328125 C7.125 17.3984375 7.125 17.3984375 3.875 17.3828125 C2.26625 17.39054687 2.26625 17.39054687 0.625 17.3984375 C-2.125 17.1328125 -2.125 17.1328125 -4.125 15.1328125 C-4.35546875 11.91015625 -4.35546875 11.91015625 -4.3125 8.0703125 C-4.30605469 6.80058594 -4.29960937 5.53085937 -4.29296875 4.22265625 C-4.07282826 0.1730952 -4.07282826 0.1730952 0 0 Z " fill="#FDF4F8" transform="translate(353.125,373.8671875)"/>
<path d="M0 0 C-1.03207734 3.34687938 -2.08158352 4.04556738 -5.203125 5.7890625 C-6.54862858 6.40860038 -7.89784927 7.02010704 -9.25 7.625 C-25.22422422 15.20094445 -46.82502898 29.2713991 -54 46 C-54.66 46 -55.32 46 -56 46 C-56.2475 46.67675781 -56.495 47.35351562 -56.75 48.05078125 C-58.24731535 51.58350966 -60.08632695 54.86977335 -62 58.1875 C-62.35578125 58.81591797 -62.7115625 59.44433594 -63.078125 60.09179688 C-64.55442771 62.66706373 -65.89138726 64.89138726 -68 67 C-67.53272608 61.539172 -66.09567246 57.61423183 -63.1875 52.9375 C-62.7944165 52.29482178 -62.40133301 51.65214355 -61.99633789 50.98999023 C-57.39473294 43.70522851 -51.83101619 37.31658387 -46 31 C-45.31164062 30.24074219 -44.62328125 29.48148437 -43.9140625 28.69921875 C-34.767334 19.07006786 -13.66727744 0 0 0 Z " fill="#FB2D77" transform="translate(398,323)"/>
<path d="M0 0 C0.66 0.33 1.32 0.66 2 1 C2 24.43 2 47.86 2 72 C-6.58 72 -15.16 72 -24 72 C-24 68.04 -24 64.08 -24 60 C-23.67 60 -23.34 60 -23 60 C-23 63.3 -23 66.6 -23 70 C-15.41 70 -7.82 70 0 70 C0 46.9 0 23.8 0 0 Z " fill="#39393A" transform="translate(1158,443)"/>
<path d="M0 0 C0.66 0.66 1.32 1.32 2 2 C1.56154403 5.17880582 0.18588171 8.03529573 -1 11 C-2.96428141 16.34888937 -4.25136147 21.33173683 -5 27 C-5.66666667 29 -6.33333333 31 -7 33 C-8.36465588 39.92899218 -8.14693661 46.89950573 -8.125 53.9375 C-8.12886719 55.17435547 -8.13273437 56.41121094 -8.13671875 57.68554688 C-8.13715634 65.2146794 -8.13715634 65.2146794 -7.3671875 72.69140625 C-7 76 -7 76 -9 79 C-11.4988714 71.27440556 -11.35239198 63.53484181 -11.3125 55.5 C-11.31134186 54.78445953 -11.31018372 54.06891907 -11.30899048 53.33169556 C-11.27555417 42.91986119 -10.74188594 33.09569986 -8 23 C-7.77183594 22.02160156 -7.54367187 21.04320312 -7.30859375 20.03515625 C-5.59606971 13.057844 -2.89713236 6.56148949 0 0 Z " fill="#F93771" transform="translate(327,390)"/>
<path d="M0 0 C0.99 0.99 0.99 0.99 2 2 C-5.79881625 6.99669785 -13.44547024 11.40424166 -22 15 C-22.71542969 15.34675781 -23.43085938 15.69351563 -24.16796875 16.05078125 C-43.05577455 24.70908515 -65.78777659 24.67438537 -86 23 C-85.67 22.34 -85.34 21.68 -85 21 C-84.15816162 21.00523682 -83.31632324 21.01047363 -82.44897461 21.01586914 C-79.29744727 21.03300762 -76.14594386 21.04549696 -72.99438477 21.05493164 C-71.63565281 21.05993113 -70.27692615 21.06673291 -68.91821289 21.07543945 C-66.95461415 21.08769842 -64.99097459 21.09273487 -63.02734375 21.09765625 C-61.25991821 21.10551147 -61.25991821 21.10551147 -59.45678711 21.11352539 C-54.78961744 20.96024946 -50.43720647 20.47906882 -46 19 C-45.01 19.33 -44.02 19.66 -43 20 C-43 19.34 -43 18.68 -43 18 C-41.68 18.33 -40.36 18.66 -39 19 C-39 18.34 -39 17.68 -39 17 C-38.030625 16.896875 -37.06125 16.79375 -36.0625 16.6875 C-32.27313737 16.15163054 -28.82645783 15.02664648 -25.22265625 13.765625 C-22.17967463 12.71742747 -19.10141275 11.85783757 -16 11 C-16 10.34 -16 9.68 -16 9 C-14.21046815 8.16209211 -12.41830305 7.32980604 -10.625 6.5 C-9.62726563 6.0359375 -8.62953125 5.571875 -7.6015625 5.09375 C-5 4 -5 4 -3 4 C-3 3.34 -3 2.68 -3 2 C-2.01 1.34 -1.02 0.68 0 0 Z " fill="#FC622A" transform="translate(523,550)"/>
<path d="M0 0 C1.66611905 -0.042721 3.33382885 -0.04063832 5 0 C7.46292775 2.46292775 6.67354178 8.43433348 6.875 11.75 C6.96007812 12.75289063 7.04515625 13.75578125 7.1328125 14.7890625 C7.55849821 22.08376769 7.55849821 22.08376769 5.89160156 24.81835938 C4.5078125 26.203125 4.5078125 26.203125 2 28 C0.01039227 24.6816923 -0.2361745 22.20040301 -0.1953125 18.359375 C-0.18886719 17.28945313 -0.18242187 16.21953125 -0.17578125 15.1171875 C-0.15902344 14.00601562 -0.14226562 12.89484375 -0.125 11.75 C-0.11597656 10.62335938 -0.10695313 9.49671875 -0.09765625 8.3359375 C-0.07410658 5.55707635 -0.0412168 2.7786461 0 0 Z " fill="#FC477A" transform="translate(375,372)"/>
<path d="M0 0 C0.639375 0.66 1.27875 1.32 1.9375 2 C4.40560138 4.45403812 6.93416613 6.83584258 9.5 9.1875 C10.2321875 9.86167969 10.964375 10.53585937 11.71875 11.23046875 C14.07005895 13.05434368 16.19805491 14.03806462 19 15 C19 15.66 19 16.32 19 17 C10.42 17 1.84 17 -7 17 C-7 16.67 -7 16.34 -7 16 C1.415 15.505 1.415 15.505 10 15 C8.02 14.01 6.04 13.02 4 12 C1.24745675 8.74040931 0.06676868 6.90137718 -0.25 2.625 C-0.1675 1.75875 -0.085 0.8925 0 0 Z " fill="#FDB5B2" transform="translate(382,498)"/>
<path d="M0 0 C8.58 0 17.16 0 26 0 C26 0.33 26 0.66 26 1 C14.615 1.99 14.615 1.99 3 3 C2.75064854 10.433883 2.75064854 10.433883 2.52197266 17.8684082 C2.4863623 18.79484131 2.45075195 19.72127441 2.4140625 20.67578125 C2.3826416 21.62364502 2.3512207 22.57150879 2.31884766 23.5480957 C2 26 2 26 0 29 C0 19.43 0 9.86 0 0 Z " fill="#FB6256" transform="translate(1417,384)"/>
<path d="M0 0 C0.66 0.66 1.32 1.32 2 2 C1.56154403 5.17880582 0.18588171 8.03529573 -1 11 C-2.96428141 16.34888937 -4.25136147 21.33173683 -5 27 C-5.62256028 29.01416562 -6.27566653 31.02015519 -7 33 C-7.66 33 -8.32 33 -9 33 C-9 34.98 -9 36.96 -9 39 C-9.33 39 -9.66 39 -10 39 C-10.24587892 32.84600181 -9.44930139 27.67082007 -7.8125 21.75 C-7.59053955 20.92459717 -7.3685791 20.09919434 -7.13989258 19.2487793 C-5.28782867 12.57549033 -2.94418033 6.2767419 0 0 Z " fill="#FA3E83" transform="translate(327,390)"/>
<path d="M0 0 C5.76754545 4.79827739 11.20519156 9.89082444 16.55517578 15.15014648 C17.52663116 16.09976956 18.50431216 17.04306132 19.48779297 17.98022461 C20.92266152 19.34844885 22.33670634 20.73840765 23.75 22.12890625 C24.59046875 22.94431885 25.4309375 23.75973145 26.296875 24.59985352 C28 27 28 27 27.92578125 29.69116211 C26.6773774 32.80459965 24.94995355 33.56284314 22 35 C22.309375 34.4225 22.61875 33.845 22.9375 33.25 C23.4634375 32.13625 23.4634375 32.13625 24 31 C24.45439453 30.12408203 24.45439453 30.12408203 24.91796875 29.23046875 C25.25983841 26.67241878 25.25983841 26.67241878 22.6484375 24.16015625 C21.56966723 23.11468136 20.47783457 22.0825583 19.375 21.0625 C18.57255859 20.29389648 18.57255859 20.29389648 17.75390625 19.50976562 C16.68605856 18.48738591 15.61371128 17.46968472 14.53686523 16.45678711 C12.31323017 14.3490142 10.16100807 12.17168851 8 10 C6.89205078 8.92685547 6.89205078 8.92685547 5.76171875 7.83203125 C4.73498047 6.83236328 4.73498047 6.83236328 3.6875 5.8125 C2.99011719 5.13832031 2.29273438 4.46414063 1.57421875 3.76953125 C0 2 0 2 0 0 Z " fill="#FC703F" transform="translate(517,505)"/>
<path d="M0 0 C0 0.33 0 0.66 0 1 C-10.395 1.495 -10.395 1.495 -21 2 C-21 2.33 -21 2.66 -21 3 C-24.63 3 -28.26 3 -32 3 C-32 3.66 -32 4.32 -32 5 C-33.175625 4.9690625 -33.175625 4.9690625 -34.375 4.9375 C-36.98114961 4.81315937 -36.98114961 4.81315937 -39 6 C-41.00800456 5.71887936 -43.01014051 5.38932033 -45 5 C-42.10566159 2.10566159 -38.77733696 1.99382231 -34.875 1.375 C-33.64269653 1.17716919 -33.64269653 1.17716919 -32.38549805 0.9753418 C-21.64141076 -0.56664754 -10.82461538 -0.27099756 0 0 Z " fill="#FC4F81" transform="translate(461,312)"/>
<path d="M0 0 C0.99 0 1.98 0 3 0 C4.03387512 8.0125322 4.10466648 15.92905177 4 24 C-0.53701494 25.45184478 -4.18061476 26.23509196 -9 26 C-9 25.67 -9 25.34 -9 25 C-3.555 24.01 -3.555 24.01 2 23 C1.34 15.41 0.68 7.82 0 0 Z " fill="#FC733D" transform="translate(1470,489)"/>
<path d="M0 0 C0.33 0 0.66 0 1 0 C1 16.17 1 32.34 1 49 C1.99 49.33 2.98 49.66 4 50 C2.68 51.32 1.36 52.64 0 54 C0 36.18 0 18.36 0 0 Z " fill="#EBECEC" transform="translate(776,371)"/>
<path d="M0 0 C11.88 0 23.76 0 36 0 C24.96578661 5.5171067 10.87228235 2.98350268 -1 2 C-0.67 1.34 -0.34 0.68 0 0 Z " fill="#FB532B" transform="translate(438,571)"/>
<path d="M0 0 C1.32 0.33 2.64 0.66 4 1 C4.05389087 2.95803507 4.09274217 4.91648909 4.125 6.875 C4.14820313 7.96554687 4.17140625 9.05609375 4.1953125 10.1796875 C4 13 4 13 2 15 C1.34 14.67 0.68 14.34 0 14 C0 9.38 0 4.76 0 0 Z " fill="#FD6B94" transform="translate(376,373)"/>
<path d="M0 0 C8.25 0 16.5 0 25 0 C24.67 0.66 24.34 1.32 24 2 C21.12546578 2.22297226 18.2513818 2.42878171 15.375 2.625 C14.56675781 2.68945312 13.75851562 2.75390625 12.92578125 2.8203125 C8.12222508 3.13273892 4.52932939 2.92020113 0 1 C0 0.67 0 0.34 0 0 Z " fill="#FB6E52" transform="translate(439,521)"/>
<path d="M0 0 C2.38459073 2.98073841 4.73151861 5.93755012 7 9 C5.75325341 11.49349318 4.30039894 12.46640071 2 14 C1.34 14 0.68 14 0 14 C0 9.38 0 4.76 0 0 Z " fill="#FC4148" transform="translate(382,482)"/>
<path d="M0 0 C1.67542976 0.28604898 3.34385343 0.61781233 5 1 C2.35722044 2.76185304 1.05132516 3.38438582 -1.90625 4.0703125 C-2.65003906 4.24433594 -3.39382813 4.41835938 -4.16015625 4.59765625 C-4.93230469 4.77167969 -5.70445312 4.94570313 -6.5 5.125 C-7.65822266 5.39763672 -7.65822266 5.39763672 -8.83984375 5.67578125 C-11.95008704 6.39270041 -14.79781695 7 -18 7 C-17.67 6.01 -17.34 5.02 -17 4 C-15.35 4.33 -13.7 4.66 -12 5 C-12 4.34 -12 3.68 -12 3 C-10.68 3.33 -9.36 3.66 -8 4 C-8 3.34 -8 2.68 -8 2 C-6.2984375 1.7834375 -6.2984375 1.7834375 -4.5625 1.5625 C-1.19222799 1.38828522 -1.19222799 1.38828522 0 0 Z " fill="#FC6639" transform="translate(492,565)"/>
<path d="M0 0 C0 0.33 0 0.66 0 1 C-1.28197266 1.09087891 -1.28197266 1.09087891 -2.58984375 1.18359375 C-4.24693359 1.30927734 -4.24693359 1.30927734 -5.9375 1.4375 C-7.03964844 1.51871094 -8.14179687 1.59992188 -9.27734375 1.68359375 C-11.91109903 1.70418084 -11.91109903 1.70418084 -13 3 C-15.69235776 3.23678716 -18.36498156 3.42198025 -21.0625 3.5625 C-22.20041992 3.62727539 -22.20041992 3.62727539 -23.36132812 3.69335938 C-25.24065438 3.79973633 -27.12030244 3.90039934 -29 4 C-20.59776687 -1.60148876 -9.66852448 -0.19980877 0 0 Z " fill="#FA7780" transform="translate(1353,410)"/>
<path d="M0 0 C1.65 0 3.3 0 5 0 C5 0.66 5 1.32 5 2 C5.66 1.67 6.32 1.34 7 1 C8.99960012 0.960008 11.00047242 0.95653201 13 1 C12.67 1.99 12.34 2.98 12 4 C10.39620659 4.05416188 8.79188594 4.09286638 7.1875 4.125 C6.29417969 4.14820313 5.40085937 4.17140625 4.48046875 4.1953125 C2 4 2 4 -1 2 C-0.67 1.34 -0.34 0.68 0 0 Z " fill="#FC7352" transform="translate(423,569)"/>
<path d="M0 0 C0.33 0 0.66 0 1 0 C1.22786458 2.05078125 1.45572917 4.1015625 1.68359375 6.15234375 C1.81886614 8.01140229 1.81886614 8.01140229 3 9 C4.70563778 9.15740605 6.41727244 9.25093392 8.12890625 9.31640625 C9.68061523 9.37924805 9.68061523 9.37924805 11.26367188 9.44335938 C12.35228516 9.48267578 13.44089844 9.52199219 14.5625 9.5625 C15.65498047 9.60568359 16.74746094 9.64886719 17.87304688 9.69335938 C20.58189564 9.79982068 23.29083992 9.90183516 26 10 C26 10.33 26 10.66 26 11 C17.42 11 8.84 11 0 11 C0 7.37 0 3.74 0 0 Z " fill="#FB491B" transform="translate(1365,503)"/>
<path d="M0 0 C0 0.66 0 1.32 0 2 C-2.05590454 2.86992154 -4.12005336 3.72037689 -6.1875 4.5625 C-7.91033203 5.27599609 -7.91033203 5.27599609 -9.66796875 6.00390625 C-13.05139127 7.01536316 -14.68416941 7.04283184 -18 6 C-15.40052213 3.40052213 -13.07261547 2.9315565 -9.5625 1.875 C-8.40878906 1.52179688 -7.25507813 1.16859375 -6.06640625 0.8046875 C-3 0 -3 0 0 0 Z " fill="#FC3E7E" transform="translate(416,317)"/>
<path d="M0 0 C2.64752004 2.57784846 4.94432065 4.91648098 7 8 C5.02 8.99 5.02 8.99 3 10 C0.64551835 7.44931155 0.01672076 6.28982642 -0.1875 2.75 C-0.125625 1.8425 -0.06375 0.935 0 0 Z " fill="#FB8987" transform="translate(382,498)"/>
<path d="M0 0 C3.71888239 0.50712033 6.73454239 1.11608215 10 3 C10 3.66 10 4.32 10 5 C10.99 5 11.98 5 13 5 C13.33 5.99 13.66 6.98 14 8 C9.25981099 6.16508812 4.63586749 4.08058541 0 2 C0 1.34 0 0.68 0 0 Z " fill="#FD604B" transform="translate(387,557)"/>
<path d="M0 0 C6.75 0.75 6.75 0.75 9 3 C6.22276075 3.78688445 3.77389923 4.11949924 0.890625 4.09765625 C0.13652344 4.09443359 -0.61757812 4.09121094 -1.39453125 4.08789062 C-2.17183594 4.07951172 -2.94914062 4.07113281 -3.75 4.0625 C-4.54277344 4.05798828 -5.33554688 4.05347656 -6.15234375 4.04882812 C-8.10159508 4.03708565 -10.05080738 4.01915146 -12 4 C-8.96474514 1.97649676 -7.80573798 1.67875982 -4.3125 1.375 C-3.50425781 1.30023438 -2.69601562 1.22546875 -1.86328125 1.1484375 C-0.94095703 1.07496094 -0.94095703 1.07496094 0 1 C0 0.67 0 0.34 0 0 Z " fill="#FB7676" transform="translate(1346,430)"/>
<path d="M0 0 C0.33 0 0.66 0 1 0 C1 3.3 1 6.6 1 10 C0.67 10 0.34 10 0 10 C-0.33 13.63 -0.66 17.26 -1 21 C-1.33 21 -1.66 21 -2 21 C-2.0543965 18.62468606 -2.09385864 16.25064117 -2.125 13.875 C-2.14175781 13.20984375 -2.15851563 12.5446875 -2.17578125 11.859375 C-2.21847278 7.50483944 -1.59996217 4.04399886 0 0 Z " fill="#FA6D71" transform="translate(1300,471)"/>
<path d="M0 0 C0.99 0.66 1.98 1.32 3 2 C1.7934375 3.175625 1.7934375 3.175625 0.5625 4.375 C-1.98690417 6.71982856 -1.98690417 6.71982856 -3 9 C-5.0625 9.625 -5.0625 9.625 -7 10 C-5.6062718 5.56541027 -3.39417765 3.12621626 0 0 Z " fill="#363638" transform="translate(1076,462)"/>
<path d="M0 0 C0.33 0 0.66 0 1 0 C1 5.61 1 11.22 1 17 C1.99 17.33 2.98 17.66 4 18 C2.68 19.32 1.36 20.64 0 22 C0 14.74 0 7.48 0 0 Z " fill="#E6E6E6" transform="translate(776,403)"/>
<path d="M0 0 C1.670625 0.061875 1.670625 0.061875 3.375 0.125 C2.385 0.62 2.385 0.62 1.375 1.125 C1.375 1.785 1.375 2.445 1.375 3.125 C-0.605 4.115 -2.585 5.105 -4.625 6.125 C-5.25 4.25 -5.25 4.25 -5.625 2.125 C-3.625 0.125 -3.625 0.125 0 0 Z " fill="#FC3071" transform="translate(434.625,403.875)"/>
<path d="M0 0 C4.29 0.66 8.58 1.32 13 2 C12.67 2.66 12.34 3.32 12 4 C3.42857143 4.28571429 3.42857143 4.28571429 0 2 C0 1.34 0 0.68 0 0 Z " fill="#39393A" transform="translate(870,396)"/>
<path d="M0 0 C0.33 0 0.66 0 1 0 C2.125 7.75 2.125 7.75 1 10 C0.34 10 -0.32 10 -1 10 C-1 11.98 -1 13.96 -1 16 C-1.33 16 -1.66 16 -2 16 C-2.20674944 10.21101581 -1.59162079 5.57067277 0 0 Z " fill="#F74886" transform="translate(319,413)"/>
<path d="M0 0 C1.79323253 0.28187936 3.58457126 0.5758281 5.375 0.875 C6.37273437 1.03742187 7.37046875 1.19984375 8.3984375 1.3671875 C11 2 11 2 13 4 C7.66404866 4.27131956 4.38616179 4.4266889 0 1 C0 0.67 0 0.34 0 0 Z " fill="#FD5137" transform="translate(405,565)"/>
<path d="M0 0 C0.99 0.33 1.98 0.66 3 1 C2.04882866 2.1725131 1.08882991 3.33787015 0.125 4.5 C-0.40867187 5.1496875 -0.94234375 5.799375 -1.4921875 6.46875 C-1.98976563 6.9740625 -2.48734375 7.479375 -3 8 C-3.66 8 -4.32 8 -5 8 C-3.62845496 5.04590299 -2.01136276 2.55991624 0 0 Z " fill="#2D2E2F" transform="translate(1027,418)"/>
<path d="M0 0 C0.99 0.33 1.98 0.66 3 1 C1.88121617 2.17262904 0.75476949 3.33795138 -0.375 4.5 C-1.00148438 5.1496875 -1.62796875 5.799375 -2.2734375 6.46875 C-4 8 -4 8 -6 8 C-4.55746343 4.63408134 -2.66735273 2.48952921 0 0 Z " fill="#313133" transform="translate(625,387)"/>
<path d="M0 0 C1.32 0.33 2.64 0.66 4 1 C3.34 1 2.68 1 2 1 C1.5359375 2.175625 1.5359375 2.175625 1.0625 3.375 C0 6 0 6 -1 8 C-1.66 8 -2.32 8 -3 8 C-2.45276317 4.62537285 -1.9451 2.91765 0 0 Z " fill="#FC1F73" transform="translate(340,368)"/>
<path d="M0 0 C0.66 0.33 1.32 0.66 2 1 C-2.82142857 7.29464286 -2.82142857 7.29464286 -7 8 C-6.02133662 6.85373678 -5.04205413 5.70800212 -4.0625 4.5625 C-3.51722656 3.92441406 -2.97195313 3.28632813 -2.41015625 2.62890625 C-1.63204305 1.73008851 -0.84063472 0.84063472 0 0 Z " fill="#2C2D2F" transform="translate(1080,420)"/>
<path d="M0 0 C0.66 0.99 1.32 1.98 2 3 C0.68 5.31 -0.64 7.62 -2 10 C-2.66 10 -3.32 10 -4 10 C-2.8905928 6.51329166 -1.73662334 3.22515763 0 0 Z " fill="#303133" transform="translate(610,406)"/>
<path d="M0 0 C0.66 0.66 1.32 1.32 2 2 C1.05066101 5.35433109 0.10251165 8.69246505 -1 12 C-1.33 12 -1.66 12 -2 12 C-2.28571429 3.42857143 -2.28571429 3.42857143 0 0 Z " fill="#FA206D" transform="translate(322,406)"/>
<path d="M0 0 C0.804375 0.12375 1.60875 0.2475 2.4375 0.375 C3.0975 1.365 3.7575 2.355 4.4375 3.375 C3.4475 3.375 2.4575 3.375 1.4375 3.375 C1.4375 2.715 1.4375 2.055 1.4375 1.375 C0.839375 1.890625 0.24125 2.40625 -0.375 2.9375 C-1.096875 3.411875 -1.81875 3.88625 -2.5625 4.375 C-3.5525 4.045 -4.5425 3.715 -5.5625 3.375 C-3.76123295 1.09971531 -2.9258843 0.42817819 0 0 Z " fill="#FC724D" transform="translate(509.5625,497.625)"/>
<path d="M0 0 C0 0.66 0 1.32 0 2 C-6.28571429 4.42857143 -6.28571429 4.42857143 -10 3 C-3.375 0 -3.375 0 0 0 Z " fill="#FC296E" transform="translate(416,317)"/>
<path d="M0 0 C0.66 0.99 1.32 1.98 2 3 C0.35 4.65 -1.3 6.3 -3 8 C-3.99 7.67 -4.98 7.34 -6 7 C-5.195625 6.21625 -4.39125 5.4325 -3.5625 4.625 C-1.01309583 2.28017144 -1.01309583 2.28017144 0 0 Z " fill="#FB6549" transform="translate(1362,485)"/>
<path d="M0 0 C0.99 0.66 1.98 1.32 3 2 C-1.75 6 -1.75 6 -4 6 C-3.0022242 3.00667261 -2.2477975 2.05233685 0 0 Z " fill="#FC6327" transform="translate(530,544)"/>
<path d="M0 0 C0.66 0 1.32 0 2 0 C1.3125 2.4375 1.3125 2.4375 0 5 C-2.625 5.8125 -2.625 5.8125 -5 6 C-3.38405168 3.95880212 -1.7143618 1.95927063 0 0 Z " fill="#3B3C3D" transform="translate(709,474)"/>
</svg>